<svg width="191" height="83" viewBox="0 0 191 83" fill="none" xmlns="http://www.w3.org/2000/svg">
<path d="M186 49.3205L99 53L33.5 59L16.5 61.5L-1.51421e-06 66.641L0 32L17 37L33.5 40L99 46.3205L186 49.3205Z" fill="#3079AE"/>
<path d="M41.3097 24H37.9716C37.723 22.7571 37.2732 21.6089 36.6222 20.5554C35.983 19.4901 35.178 18.5608 34.2074 17.7678C33.2367 16.9747 32.1359 16.3591 30.9048 15.9212C29.6738 15.4832 28.3421 15.2642 26.9098 15.2642C24.6134 15.2642 22.5182 15.862 20.6243 17.0575C18.7422 18.2531 17.233 20.0109 16.0966 22.331C14.9721 24.6392 14.4098 27.4683 14.4098 30.8182C14.4098 34.1918 14.9721 37.0327 16.0966 39.3409C17.233 41.6491 18.7422 43.401 20.6243 44.5966C22.5182 45.7803 24.6134 46.3722 26.9098 46.3722C28.3421 46.3722 29.6738 46.1532 30.9048 45.7152C32.1359 45.2772 33.2367 44.6676 34.2074 43.8864C35.178 43.0933 35.983 42.1641 36.6222 41.0987C37.2732 40.0334 37.723 38.8793 37.9716 37.6364H41.3097C41.0137 39.3054 40.4574 40.862 39.6406 42.3061C38.8357 43.7384 37.8059 44.9931 36.5511 46.0703C35.3082 47.1475 33.8759 47.9879 32.2543 48.5916C30.6326 49.1953 28.8511 49.4972 26.9098 49.4972C23.8558 49.4972 21.1451 48.7337 18.7777 47.2067C16.4103 45.6679 14.5518 43.5017 13.2024 40.7081C11.8648 37.9145 11.196 34.6179 11.196 30.8182C11.196 27.0185 11.8648 23.7218 13.2024 20.9283C14.5518 18.1347 16.4103 15.9744 18.7777 14.4474C21.1451 12.9086 23.8558 12.1392 26.9098 12.1392C28.8511 12.1392 30.6326 12.4411 32.2543 13.0447C33.8759 13.6366 35.3082 14.477 36.5511 15.5661C37.8059 16.6432 38.8357 17.898 39.6406 19.3303C40.4574 20.7625 41.0137 22.3191 41.3097 24ZM92.9831 30.8182C92.9831 34.6061 92.3084 37.9027 90.959 40.7081C89.6096 43.5017 87.7511 45.6679 85.3837 47.2067C83.0281 48.7337 80.3174 49.4972 77.2516 49.4972C74.1858 49.4972 71.4692 48.7337 69.1017 47.2067C66.7462 45.6679 64.8936 43.5017 63.5442 40.7081C62.2066 37.9027 61.5378 34.6061 61.5378 30.8182C61.5378 27.0303 62.2066 23.7396 63.5442 20.946C64.8936 18.1406 66.7521 15.9744 69.1195 14.4474C71.4869 12.9086 74.1976 12.1392 77.2516 12.1392C80.3174 12.1392 83.0281 12.9086 85.3837 14.4474C87.7511 15.9744 89.6096 18.1406 90.959 20.946C92.3084 23.7396 92.9831 27.0303 92.9831 30.8182ZM89.7516 30.8182C89.7516 27.563 89.2071 24.7753 88.1181 22.4553C87.0291 20.1233 85.5435 18.3419 83.6614 17.1108C81.7793 15.8797 79.6427 15.2642 77.2516 15.2642C74.8723 15.2642 72.7417 15.8797 70.8596 17.1108C68.9775 18.3419 67.486 20.1174 66.3851 22.4375C65.2961 24.7576 64.7516 27.5511 64.7516 30.8182C64.7516 34.0734 65.2961 36.861 66.3851 39.1811C67.4741 41.5012 68.9597 43.2827 70.8418 44.5256C72.7239 45.7566 74.8605 46.3722 77.2516 46.3722C79.6427 46.3722 81.7793 45.7566 83.6614 44.5256C85.5553 43.2945 87.0468 41.5189 88.1358 39.1989C89.2248 36.867 89.7634 34.0734 89.7516 30.8182ZM128.854 12.6364H132.174V38.8615C132.163 41.2289 131.736 43.2057 130.896 44.7919C130.056 46.3662 128.895 47.544 127.416 48.3253C125.936 49.1065 124.238 49.4972 122.32 49.4972C120.438 49.4972 118.757 49.148 117.277 48.4496C115.798 47.7512 114.632 46.7687 113.779 45.5021C112.939 44.2356 112.519 42.75 112.519 41.0455H115.786C115.786 42.1226 116.07 43.0755 116.638 43.9041C117.206 44.7209 117.982 45.3601 118.964 45.8217C119.958 46.2834 121.077 46.5142 122.32 46.5142C123.61 46.5142 124.741 46.242 125.711 45.6974C126.694 45.1529 127.463 44.3184 128.02 43.1939C128.576 42.0575 128.854 40.6134 128.854 38.8615V12.6364ZM159.216 12.6364V49H155.896V12.6364H159.216Z" fill="#72C4FF"/>
<path d="M57.0788 74.5455V75.0959H54.3977V74.5455H57.0788ZM55.2358 80V73.7464C55.2358 73.4529 55.3033 73.2055 55.4382 73.0043C55.5755 72.803 55.7543 72.6503 55.9744 72.5462C56.1946 72.442 56.4278 72.3899 56.674 72.3899C56.8397 72.3899 56.977 72.4041 57.0859 72.4325C57.1972 72.4586 57.2848 72.4846 57.3487 72.5107L57.1641 73.0646C57.1167 73.0504 57.0587 73.0339 56.9901 73.0149C56.9214 72.996 56.835 72.9865 56.7308 72.9865C56.4562 72.9865 56.2443 73.0634 56.0952 73.2173C55.946 73.3712 55.8714 73.5914 55.8714 73.8778L55.8679 80H55.2358ZM60.2358 80.1136C59.7647 80.1136 59.348 79.9941 58.9858 79.755C58.6259 79.5159 58.3442 79.1856 58.1406 78.7642C57.937 78.3404 57.8352 77.8516 57.8352 77.2976C57.8352 76.7389 57.937 76.2476 58.1406 75.8239C58.3442 75.3977 58.6259 75.0663 58.9858 74.8295C59.348 74.5904 59.7647 74.4709 60.2358 74.4709C60.7069 74.4709 61.1224 74.5904 61.4822 74.8295C61.8421 75.0687 62.1238 75.4001 62.3274 75.8239C62.5334 76.2476 62.6364 76.7389 62.6364 77.2976C62.6364 77.8516 62.5346 78.3404 62.331 78.7642C62.1274 79.1856 61.8445 79.5159 61.4822 79.755C61.1224 79.9941 60.7069 80.1136 60.2358 80.1136ZM60.2358 79.5348C60.6146 79.5348 60.9354 79.433 61.1982 79.2294C61.4609 79.0258 61.6598 78.7547 61.7947 78.4162C61.9321 78.0777 62.0007 77.7048 62.0007 77.2976C62.0007 76.8904 61.9321 76.5163 61.7947 76.1754C61.6598 75.8345 61.4609 75.5611 61.1982 75.3551C60.9354 75.1491 60.6146 75.0462 60.2358 75.0462C59.8594 75.0462 59.5386 75.1491 59.2734 75.3551C59.0107 75.5611 58.8106 75.8345 58.6733 76.1754C58.5384 76.5163 58.4709 76.8904 58.4709 77.2976C58.4709 77.7048 58.5384 78.0777 58.6733 78.4162C58.8106 78.7547 59.0107 79.0258 59.2734 79.2294C59.5362 79.433 59.857 79.5348 60.2358 79.5348ZM64.024 80V74.5455H64.6383V75.3835H64.6845C64.7934 75.1089 64.9828 74.8875 65.2527 74.7195C65.5249 74.549 65.8327 74.4638 66.176 74.4638C66.228 74.4638 66.286 74.465 66.35 74.4673C66.4139 74.4697 66.4672 74.4721 66.5098 74.4744V75.1172C66.4814 75.1125 66.4316 75.1054 66.3606 75.0959C66.2896 75.0864 66.2127 75.0817 66.1298 75.0817C65.8457 75.0817 65.5924 75.142 65.3699 75.2628C65.1497 75.3812 64.9757 75.5457 64.8478 75.7564C64.72 75.9671 64.6561 76.2074 64.6561 76.4773V80H64.024ZM74.0657 75.7422L73.4869 75.9055C73.43 75.7422 73.3496 75.5942 73.2454 75.4616C73.1412 75.3291 73.0051 75.2237 72.837 75.1456C72.6713 75.0675 72.4653 75.0284 72.2191 75.0284C71.8498 75.0284 71.5468 75.116 71.31 75.2912C71.0733 75.4664 70.9549 75.6925 70.9549 75.9695C70.9549 76.2038 71.0354 76.3944 71.1964 76.5412C71.3597 76.6856 71.6107 76.8004 71.9492 76.8857L72.7731 77.0881C73.23 77.1993 73.5721 77.3757 73.7994 77.6172C74.029 77.8587 74.1438 78.1617 74.1438 78.5263C74.1438 78.834 74.0586 79.1075 73.8881 79.3466C73.7177 79.5857 73.4798 79.7739 73.1744 79.9112C72.8713 80.0462 72.5198 80.1136 72.1197 80.1136C71.587 80.1136 71.1478 79.9941 70.8022 79.755C70.4566 79.5135 70.2352 79.1655 70.1381 78.7109L70.7454 78.5618C70.8235 78.8861 70.9762 79.1312 71.2035 79.2969C71.4331 79.4626 71.735 79.5455 72.109 79.5455C72.5281 79.5455 72.863 79.4519 73.114 79.2649C73.3649 79.0755 73.4904 78.8388 73.4904 78.5547C73.4904 78.3345 73.417 78.1499 73.2702 78.0007C73.1235 77.8492 72.9009 77.7379 72.6026 77.6669L71.7113 77.4538C71.2378 77.3402 70.8874 77.1603 70.6602 76.9141C70.4329 76.6679 70.3192 76.3625 70.3192 75.9979C70.3192 75.6972 70.4009 75.4332 70.5643 75.206C70.7276 74.9763 70.9525 74.7964 71.239 74.6662C71.5254 74.536 71.8522 74.4709 72.2191 74.4709C72.7186 74.4709 73.1175 74.5845 73.4158 74.8118C73.7165 75.0367 73.9331 75.3468 74.0657 75.7422ZM77.6479 80.1136C77.1768 80.1136 76.7601 79.9941 76.3979 79.755C76.0381 79.5159 75.7563 79.1856 75.5527 78.7642C75.3491 78.3404 75.2473 77.8516 75.2473 77.2976C75.2473 76.7389 75.3491 76.2476 75.5527 75.8239C75.7563 75.3977 76.0381 75.0663 76.3979 74.8295C76.7601 74.5904 77.1768 74.4709 77.6479 74.4709C78.119 74.4709 78.5345 74.5904 78.8944 74.8295C79.2542 75.0687 79.5359 75.4001 79.7395 75.8239C79.9455 76.2476 80.0485 76.7389 80.0485 77.2976C80.0485 77.8516 79.9467 78.3404 79.7431 78.7642C79.5395 79.1856 79.2566 79.5159 78.8944 79.755C78.5345 79.9941 78.119 80.1136 77.6479 80.1136ZM77.6479 79.5348C78.0267 79.5348 78.3475 79.433 78.6103 79.2294C78.873 79.0258 79.0719 78.7547 79.2069 78.4162C79.3442 78.0777 79.4128 77.7048 79.4128 77.2976C79.4128 76.8904 79.3442 76.5163 79.2069 76.1754C79.0719 75.8345 78.873 75.5611 78.6103 75.3551C78.3475 75.1491 78.0267 75.0462 77.6479 75.0462C77.2715 75.0462 76.9507 75.1491 76.6855 75.3551C76.4228 75.5611 76.2227 75.8345 76.0854 76.1754C75.9505 76.5163 75.883 76.8904 75.883 77.2976C75.883 77.7048 75.9505 78.0777 76.0854 78.4162C76.2227 78.7547 76.4228 79.0258 76.6855 79.2294C76.9483 79.433 77.2691 79.5348 77.6479 79.5348ZM83.5668 80.1136C83.0791 80.1136 82.6541 79.9917 82.2919 79.7479C81.9321 79.504 81.6527 79.1702 81.4538 78.7464C81.255 78.3227 81.1555 77.8397 81.1555 77.2976C81.1555 76.7507 81.2562 76.2642 81.4574 75.8381C81.661 75.4119 81.9427 75.0781 82.3026 74.8366C82.6624 74.5928 83.0803 74.4709 83.5561 74.4709C83.9207 74.4709 84.2509 74.5419 84.5469 74.6839C84.8428 74.8236 85.0866 75.0213 85.2784 75.277C85.4725 75.5303 85.5945 75.8262 85.6442 76.1648H85.005C84.9387 75.857 84.7789 75.5942 84.5256 75.3764C84.2746 75.1562 83.955 75.0462 83.5668 75.0462C83.2188 75.0462 82.911 75.1409 82.6435 75.3303C82.3759 75.5173 82.1664 75.7789 82.0149 76.1151C81.8658 76.4489 81.7912 76.8359 81.7912 77.2763C81.7912 77.719 81.8646 78.1108 82.0114 78.4517C82.1581 78.7902 82.3641 79.0554 82.6293 79.2472C82.8968 79.4389 83.2093 79.5348 83.5668 79.5348C83.8082 79.5348 84.0284 79.4898 84.2273 79.3999C84.4285 79.3075 84.5966 79.1773 84.7315 79.0092C84.8688 78.8411 84.9612 78.6411 85.0085 78.4091H85.6477C85.6004 78.7382 85.4832 79.0317 85.2962 79.2898C85.1115 79.5455 84.8712 79.7467 84.5753 79.8935C84.2817 80.0402 83.9455 80.1136 83.5668 80.1136ZM87.0096 80V74.5455H87.6452V80H87.0096ZM87.3327 73.608C87.2025 73.608 87.0913 73.5642 86.9989 73.4766C86.9066 73.3866 86.8604 73.2789 86.8604 73.1534C86.8604 73.0279 86.9066 72.9214 86.9989 72.8338C87.0913 72.7438 87.2025 72.6989 87.3327 72.6989C87.4629 72.6989 87.5742 72.7438 87.6665 72.8338C87.7589 72.9214 87.805 73.0279 87.805 73.1534C87.805 73.2789 87.7589 73.3866 87.6665 73.4766C87.5742 73.5642 87.4629 73.608 87.3327 73.608ZM90.8404 80.1243C90.5113 80.1243 90.2106 80.0604 89.9384 79.9325C89.6661 79.8023 89.4495 79.6153 89.2885 79.3714C89.1275 79.1252 89.0471 78.8269 89.0471 78.4766C89.0471 78.2067 89.098 77.9794 89.1998 77.7947C89.3016 77.6101 89.446 77.4586 89.633 77.3402C89.82 77.2218 90.0414 77.1283 90.2971 77.0597C90.5527 76.991 90.8345 76.9377 91.1422 76.8999C91.4476 76.862 91.7057 76.8288 91.9164 76.8004C92.1294 76.772 92.2916 76.727 92.4029 76.6655C92.5141 76.6039 92.5698 76.5045 92.5698 76.3672V76.2393C92.5698 75.8677 92.4585 75.5753 92.236 75.3622C92.0158 75.1468 91.6986 75.0391 91.2843 75.0391C90.8913 75.0391 90.5705 75.1255 90.3219 75.2983C90.0757 75.4711 89.9029 75.6747 89.8034 75.9091L89.2033 75.6925C89.3264 75.3942 89.4969 75.1562 89.7147 74.9787C89.9325 74.7988 90.1763 74.6697 90.4462 74.5916C90.7161 74.5111 90.9895 74.4709 91.2665 74.4709C91.4748 74.4709 91.6915 74.4981 91.9164 74.5526C92.1436 74.607 92.3543 74.7017 92.5485 74.8366C92.7426 74.9692 92.9 75.1551 93.0208 75.3942C93.1415 75.6309 93.2019 75.9316 93.2019 76.2962V80H92.5698V79.1371H92.5307C92.455 79.2981 92.3425 79.4543 92.1934 79.6058C92.0442 79.7573 91.8572 79.8816 91.6323 79.9787C91.4074 80.0758 91.1434 80.1243 90.8404 80.1243ZM90.9256 79.5455C91.2618 79.5455 91.553 79.4709 91.7992 79.3217C92.0454 79.1726 92.2348 78.9749 92.3674 78.7287C92.5023 78.4801 92.5698 78.2067 92.5698 77.9084V77.12C92.5224 77.165 92.4431 77.2053 92.3319 77.2408C92.223 77.2763 92.0963 77.3082 91.9519 77.3366C91.8098 77.3627 91.6678 77.3852 91.5257 77.4041C91.3837 77.4231 91.2559 77.4396 91.1422 77.4538C90.8345 77.4917 90.5717 77.5509 90.3539 77.6314C90.1361 77.7119 89.9692 77.8232 89.8532 77.9652C89.7372 78.1049 89.6792 78.2848 89.6792 78.505C89.6792 78.8364 89.7975 79.0933 90.0343 79.2756C90.271 79.4555 90.5681 79.5455 90.9256 79.5455ZM95.5154 72.7273V80H94.8833V72.7273H95.5154ZM100.008 80V74.5455H100.643V80H100.008ZM100.331 73.608C100.201 73.608 100.089 73.5642 99.997 73.4766C99.9047 73.3866 99.8585 73.2789 99.8585 73.1534C99.8585 73.0279 99.9047 72.9214 99.997 72.8338C100.089 72.7438 100.201 72.6989 100.331 72.6989C100.461 72.6989 100.572 72.7438 100.665 72.8338C100.757 72.9214 100.803 73.0279 100.803 73.1534C100.803 73.2789 100.757 73.3866 100.665 73.4766C100.572 73.5642 100.461 73.608 100.331 73.608ZM102.315 80V74.5455H102.929V75.3835H102.986C103.095 75.1018 103.276 74.8804 103.529 74.7195C103.785 74.5561 104.092 74.4744 104.449 74.4744C104.826 74.4744 105.135 74.5632 105.376 74.7408C105.62 74.916 105.802 75.1574 105.923 75.4652H105.969C106.092 75.1622 106.292 74.9219 106.569 74.7443C106.849 74.5644 107.187 74.4744 107.585 74.4744C108.092 74.4744 108.492 74.6342 108.785 74.9538C109.079 75.2711 109.225 75.7351 109.225 76.3459V80H108.593V76.3459C108.593 75.915 108.483 75.5919 108.263 75.3764C108.043 75.161 107.753 75.0533 107.393 75.0533C106.976 75.0533 106.656 75.1811 106.431 75.4368C106.206 75.6925 106.093 76.0168 106.093 76.4098V80H105.447V76.2891C105.447 75.9197 105.344 75.6214 105.138 75.3942C104.932 75.1669 104.642 75.0533 104.268 75.0533C104.017 75.0533 103.791 75.1148 103.59 75.2379C103.391 75.361 103.234 75.5327 103.118 75.7528C103.004 75.9706 102.947 76.2216 102.947 76.5057V80H102.315ZM110.899 82.0455V74.5455H111.513V75.5859H111.588C111.664 75.4226 111.768 75.2557 111.9 75.0852C112.033 74.9124 112.208 74.7668 112.426 74.6484C112.646 74.5301 112.923 74.4709 113.257 74.4709C113.707 74.4709 114.1 74.5893 114.436 74.826C114.774 75.0604 115.037 75.3894 115.224 75.8132C115.414 76.2346 115.508 76.7259 115.508 77.2869C115.508 77.8504 115.414 78.344 115.224 78.7678C115.037 79.1915 114.774 79.5218 114.436 79.7585C114.1 79.9953 113.709 80.1136 113.264 80.1136C112.935 80.1136 112.659 80.0545 112.437 79.9361C112.216 79.8177 112.038 79.6721 111.9 79.4993C111.765 79.3241 111.661 79.1536 111.588 78.9879H111.531V82.0455H110.899ZM111.524 77.2763C111.524 77.7166 111.589 78.1072 111.719 78.4482C111.852 78.7867 112.041 79.053 112.287 79.2472C112.536 79.4389 112.837 79.5348 113.189 79.5348C113.552 79.5348 113.857 79.4354 114.106 79.2365C114.357 79.0353 114.547 78.7642 114.677 78.4233C114.81 78.0824 114.876 77.7 114.876 77.2763C114.876 76.8572 114.811 76.4796 114.681 76.1435C114.553 75.8073 114.364 75.541 114.113 75.3445C113.862 75.1456 113.554 75.0462 113.189 75.0462C112.834 75.0462 112.532 75.142 112.284 75.3338C112.035 75.5232 111.846 75.786 111.716 76.1222C111.588 76.456 111.524 76.8407 111.524 77.2763ZM118.419 80.1243C118.089 80.1243 117.789 80.0604 117.517 79.9325C117.244 79.8023 117.028 79.6153 116.867 79.3714C116.706 79.1252 116.625 78.8269 116.625 78.4766C116.625 78.2067 116.676 77.9794 116.778 77.7947C116.88 77.6101 117.024 77.4586 117.211 77.3402C117.398 77.2218 117.619 77.1283 117.875 77.0597C118.131 76.991 118.413 76.9377 118.72 76.8999C119.026 76.862 119.284 76.8288 119.494 76.8004C119.708 76.772 119.87 76.727 119.981 76.6655C120.092 76.6039 120.148 76.5045 120.148 76.3672V76.2393C120.148 75.8677 120.037 75.5753 119.814 75.3622C119.594 75.1468 119.277 75.0391 118.862 75.0391C118.469 75.0391 118.149 75.1255 117.9 75.2983C117.654 75.4711 117.481 75.6747 117.382 75.9091L116.781 75.6925C116.905 75.3942 117.075 75.1562 117.293 74.9787C117.511 74.7988 117.754 74.6697 118.024 74.5916C118.294 74.5111 118.568 74.4709 118.845 74.4709C119.053 74.4709 119.27 74.4981 119.494 74.5526C119.722 74.607 119.932 74.7017 120.127 74.8366C120.321 74.9692 120.478 75.1551 120.599 75.3942C120.72 75.6309 120.78 75.9316 120.78 76.2962V80H120.148V79.1371H120.109C120.033 79.2981 119.921 79.4543 119.771 79.6058C119.622 79.7573 119.435 79.8816 119.21 79.9787C118.985 80.0758 118.722 80.1243 118.419 80.1243ZM118.504 79.5455C118.84 79.5455 119.131 79.4709 119.377 79.3217C119.624 79.1726 119.813 78.9749 119.945 78.7287C120.08 78.4801 120.148 78.2067 120.148 77.9084V77.12C120.101 77.165 120.021 77.2053 119.91 77.2408C119.801 77.2763 119.674 77.3082 119.53 77.3366C119.388 77.3627 119.246 77.3852 119.104 77.4041C118.962 77.4231 118.834 77.4396 118.72 77.4538C118.413 77.4917 118.15 77.5509 117.932 77.6314C117.714 77.7119 117.547 77.8232 117.431 77.9652C117.315 78.1049 117.257 78.2848 117.257 78.505C117.257 78.8364 117.376 79.0933 117.612 79.2756C117.849 79.4555 118.146 79.5455 118.504 79.5455ZM124.592 80.1136C124.104 80.1136 123.68 79.9917 123.317 79.7479C122.957 79.504 122.678 79.1702 122.479 78.7464C122.28 78.3227 122.181 77.8397 122.181 77.2976C122.181 76.7507 122.282 76.2642 122.483 75.8381C122.686 75.4119 122.968 75.0781 123.328 74.8366C123.688 74.5928 124.106 74.4709 124.581 74.4709C124.946 74.4709 125.276 74.5419 125.572 74.6839C125.868 74.8236 126.112 75.0213 126.304 75.277C126.498 75.5303 126.62 75.8262 126.67 76.1648H126.03C125.964 75.857 125.804 75.5942 125.551 75.3764C125.3 75.1562 124.98 75.0462 124.592 75.0462C124.244 75.0462 123.936 75.1409 123.669 75.3303C123.401 75.5173 123.192 75.7789 123.04 76.1151C122.891 76.4489 122.817 76.8359 122.817 77.2763C122.817 77.719 122.89 78.1108 123.037 78.4517C123.184 78.7902 123.39 79.0554 123.655 79.2472C123.922 79.4389 124.235 79.5348 124.592 79.5348C124.834 79.5348 125.054 79.4898 125.253 79.3999C125.454 79.3075 125.622 79.1773 125.757 79.0092C125.894 78.8411 125.987 78.6411 126.034 78.4091H126.673C126.626 78.7382 126.509 79.0317 126.322 79.2898C126.137 79.5455 125.897 79.7467 125.601 79.8935C125.307 80.0402 124.971 80.1136 124.592 80.1136ZM130.176 74.5455V75.0959H127.573V74.5455H130.176ZM128.387 73.2386H129.022V78.576C129.022 78.8033 129.061 78.982 129.139 79.1122C129.218 79.2401 129.319 79.3312 129.445 79.3857C129.57 79.4377 129.704 79.4638 129.846 79.4638C129.929 79.4638 130 79.459 130.059 79.4496C130.118 79.4377 130.17 79.4259 130.215 79.4141L130.35 79.9858C130.289 80.0095 130.213 80.0308 130.123 80.0497C130.033 80.071 129.922 80.0817 129.789 80.0817C129.557 80.0817 129.334 80.0308 129.118 79.929C128.905 79.8272 128.73 79.6757 128.593 79.4744C128.455 79.2732 128.387 79.0234 128.387 78.7251V73.2386ZM135.179 75.7422L134.6 75.9055C134.543 75.7422 134.463 75.5942 134.359 75.4616C134.254 75.3291 134.118 75.2237 133.95 75.1456C133.785 75.0675 133.579 75.0284 133.332 75.0284C132.963 75.0284 132.66 75.116 132.423 75.2912C132.187 75.4664 132.068 75.6925 132.068 75.9695C132.068 76.2038 132.149 76.3944 132.31 76.5412C132.473 76.6856 132.724 76.8004 133.062 76.8857L133.886 77.0881C134.343 77.1993 134.685 77.3757 134.913 77.6172C135.142 77.8587 135.257 78.1617 135.257 78.5263C135.257 78.834 135.172 79.1075 135.001 79.3466C134.831 79.5857 134.593 79.7739 134.288 79.9112C133.985 80.0462 133.633 80.1136 133.233 80.1136C132.7 80.1136 132.261 79.9941 131.915 79.755C131.57 79.5135 131.348 79.1655 131.251 78.7109L131.859 78.5618C131.937 78.8861 132.089 79.1312 132.317 79.2969C132.546 79.4626 132.848 79.5455 133.222 79.5455C133.641 79.5455 133.976 79.4519 134.227 79.2649C134.478 79.0755 134.604 78.8388 134.604 78.5547C134.604 78.3345 134.53 78.1499 134.384 78.0007C134.237 77.8492 134.014 77.7379 133.716 77.6669L132.825 77.4538C132.351 77.3402 132.001 77.1603 131.773 76.9141C131.546 76.6679 131.433 76.3625 131.433 75.9979C131.433 75.6972 131.514 75.4332 131.678 75.206C131.841 74.9763 132.066 74.7964 132.352 74.6662C132.639 74.536 132.965 74.4709 133.332 74.4709C133.832 74.4709 134.231 74.5845 134.529 74.8118C134.83 75.0367 135.046 75.3468 135.179 75.7422ZM141.584 80.1136C141.097 80.1136 140.672 79.9917 140.309 79.7479C139.95 79.504 139.67 79.1702 139.471 78.7464C139.273 78.3227 139.173 77.8397 139.173 77.2976C139.173 76.7507 139.274 76.2642 139.475 75.8381C139.679 75.4119 139.96 75.0781 140.32 74.8366C140.68 74.5928 141.098 74.4709 141.574 74.4709C141.938 74.4709 142.269 74.5419 142.564 74.6839C142.86 74.8236 143.104 75.0213 143.296 75.277C143.49 75.5303 143.612 75.8262 143.662 76.1648H143.023C142.956 75.857 142.796 75.5942 142.543 75.3764C142.292 75.1562 141.973 75.0462 141.584 75.0462C141.236 75.0462 140.929 75.1409 140.661 75.3303C140.394 75.5173 140.184 75.7789 140.032 76.1151C139.883 76.4489 139.809 76.8359 139.809 77.2763C139.809 77.719 139.882 78.1108 140.029 78.4517C140.176 78.7902 140.382 79.0554 140.647 79.2472C140.914 79.4389 141.227 79.5348 141.584 79.5348C141.826 79.5348 142.046 79.4898 142.245 79.3999C142.446 79.3075 142.614 79.1773 142.749 79.0092C142.886 78.8411 142.979 78.6411 143.026 78.4091H143.665C143.618 78.7382 143.501 79.0317 143.314 79.2898C143.129 79.5455 142.889 79.7467 142.593 79.8935C142.299 80.0402 141.963 80.1136 141.584 80.1136ZM147.14 80.1136C146.669 80.1136 146.252 79.9941 145.89 79.755C145.53 79.5159 145.249 79.1856 145.045 78.7642C144.841 78.3404 144.74 77.8516 144.74 77.2976C144.74 76.7389 144.841 76.2476 145.045 75.8239C145.249 75.3977 145.53 75.0663 145.89 74.8295C146.252 74.5904 146.669 74.4709 147.14 74.4709C147.611 74.4709 148.027 74.5904 148.387 74.8295C148.746 75.0687 149.028 75.4001 149.232 75.8239C149.438 76.2476 149.541 76.7389 149.541 77.2976C149.541 77.8516 149.439 78.3404 149.235 78.7642C149.032 79.1856 148.749 79.5159 148.387 79.755C148.027 79.9941 147.611 80.1136 147.14 80.1136ZM147.14 79.5348C147.519 79.5348 147.84 79.433 148.102 79.2294C148.365 79.0258 148.564 78.7547 148.699 78.4162C148.836 78.0777 148.905 77.7048 148.905 77.2976C148.905 76.8904 148.836 76.5163 148.699 76.1754C148.564 75.8345 148.365 75.5611 148.102 75.3551C147.84 75.1491 147.519 75.0462 147.14 75.0462C146.764 75.0462 146.443 75.1491 146.178 75.3551C145.915 75.5611 145.715 75.8345 145.578 76.1754C145.443 76.5163 145.375 76.8904 145.375 77.2976C145.375 77.7048 145.443 78.0777 145.578 78.4162C145.715 78.7547 145.915 79.0258 146.178 79.2294C146.441 79.433 146.761 79.5348 147.14 79.5348ZM151.56 76.5909V80H150.928V74.5455H151.543V75.4013H151.599C151.727 75.1219 151.926 74.8982 152.196 74.7301C152.468 74.5597 152.804 74.4744 153.205 74.4744C153.571 74.4744 153.893 74.5514 154.17 74.7053C154.45 74.8568 154.666 75.0805 154.82 75.3764C154.977 75.6723 155.055 76.0357 155.055 76.4666V80H154.423V76.5057C154.423 76.0582 154.297 75.7043 154.046 75.4439C153.798 75.1835 153.464 75.0533 153.045 75.0533C152.758 75.0533 152.504 75.1148 152.281 75.2379C152.059 75.361 151.882 75.5386 151.752 75.7706C151.624 76.0002 151.56 76.2737 151.56 76.5909ZM157.351 76.5909V80H156.719V74.5455H157.334V75.4013H157.39C157.518 75.1219 157.717 74.8982 157.987 74.7301C158.259 74.5597 158.595 74.4744 158.996 74.4744C159.363 74.4744 159.684 74.5514 159.961 74.7053C160.241 74.8568 160.457 75.0805 160.611 75.3764C160.768 75.6723 160.846 76.0357 160.846 76.4666V80H160.214V76.5057C160.214 76.0582 160.088 75.7043 159.837 75.4439C159.589 75.1835 159.255 75.0533 158.836 75.0533C158.549 75.0533 158.295 75.1148 158.072 75.2379C157.85 75.361 157.673 75.5386 157.543 75.7706C157.415 76.0002 157.351 76.2737 157.351 76.5909ZM164.716 80.1136C164.207 80.1136 163.766 79.9953 163.395 79.7585C163.023 79.5194 162.735 79.1892 162.532 78.7678C162.33 78.344 162.23 77.8563 162.23 77.3047C162.23 76.7554 162.33 76.2678 162.532 75.8416C162.735 75.4131 163.016 75.0781 163.373 74.8366C163.733 74.5928 164.149 74.4709 164.62 74.4709C164.916 74.4709 165.201 74.5253 165.475 74.6342C165.75 74.7408 165.996 74.9053 166.214 75.1278C166.434 75.348 166.608 75.6262 166.736 75.9624C166.864 76.2962 166.928 76.6915 166.928 77.1484V77.4609H162.667V76.9034H166.282C166.282 76.553 166.211 76.2382 166.069 75.9588C165.929 75.6771 165.734 75.4545 165.483 75.2912C165.234 75.1278 164.946 75.0462 164.62 75.0462C164.274 75.0462 163.97 75.1385 163.707 75.3232C163.444 75.5078 163.238 75.7517 163.089 76.0547C162.942 76.3577 162.868 76.6892 162.865 77.049V77.3828C162.865 77.8161 162.94 78.1948 163.089 78.5192C163.241 78.8411 163.455 79.0909 163.732 79.2685C164.009 79.446 164.337 79.5348 164.716 79.5348C164.974 79.5348 165.2 79.4946 165.394 79.4141C165.59 79.3336 165.755 79.2259 165.887 79.0909C166.022 78.9536 166.124 78.8033 166.193 78.6399L166.793 78.8352C166.71 79.0649 166.574 79.2768 166.385 79.4709C166.198 79.665 165.963 79.8213 165.681 79.9396C165.402 80.0556 165.08 80.1136 164.716 80.1136ZM170.452 80.1136C169.964 80.1136 169.539 79.9917 169.177 79.7479C168.817 79.504 168.537 79.1702 168.339 78.7464C168.14 78.3227 168.04 77.8397 168.04 77.2976C168.04 76.7507 168.141 76.2642 168.342 75.8381C168.546 75.4119 168.827 75.0781 169.187 74.8366C169.547 74.5928 169.965 74.4709 170.441 74.4709C170.805 74.4709 171.136 74.5419 171.432 74.6839C171.728 74.8236 171.971 75.0213 172.163 75.277C172.357 75.5303 172.479 75.8262 172.529 76.1648H171.89C171.823 75.857 171.664 75.5942 171.41 75.3764C171.159 75.1562 170.84 75.0462 170.452 75.0462C170.104 75.0462 169.796 75.1409 169.528 75.3303C169.261 75.5173 169.051 75.7789 168.9 76.1151C168.751 76.4489 168.676 76.8359 168.676 77.2763C168.676 77.719 168.749 78.1108 168.896 78.4517C169.043 78.7902 169.249 79.0554 169.514 79.2472C169.782 79.4389 170.094 79.5348 170.452 79.5348C170.693 79.5348 170.913 79.4898 171.112 79.3999C171.313 79.3075 171.481 79.1773 171.616 79.0092C171.754 78.8411 171.846 78.6411 171.893 78.4091H172.532C172.485 78.7382 172.368 79.0317 172.181 79.2898C171.996 79.5455 171.756 79.7467 171.46 79.8935C171.166 80.0402 170.83 80.1136 170.452 80.1136ZM176.036 74.5455V75.0959H173.433V74.5455H176.036ZM174.246 73.2386H174.882V78.576C174.882 78.8033 174.921 78.982 174.999 79.1122C175.077 79.2401 175.179 79.3312 175.304 79.3857C175.43 79.4377 175.563 79.4638 175.705 79.4638C175.788 79.4638 175.859 79.459 175.919 79.4496C175.978 79.4377 176.03 79.4259 176.075 79.4141L176.21 79.9858C176.148 80.0095 176.072 80.0308 175.982 80.0497C175.892 80.071 175.781 80.0817 175.649 80.0817C175.417 80.0817 175.193 80.0308 174.977 79.929C174.764 79.8272 174.589 79.6757 174.452 79.4744C174.315 79.2732 174.246 79.0234 174.246 78.7251V73.2386ZM177.478 80V74.5455H178.114V80H177.478ZM177.801 73.608C177.671 73.608 177.56 73.5642 177.468 73.4766C177.375 73.3866 177.329 73.2789 177.329 73.1534C177.329 73.0279 177.375 72.9214 177.468 72.8338C177.56 72.7438 177.671 72.6989 177.801 72.6989C177.932 72.6989 178.043 72.7438 178.135 72.8338C178.228 72.9214 178.274 73.0279 178.274 73.1534C178.274 73.2789 178.228 73.3866 178.135 73.4766C178.043 73.5642 177.932 73.608 177.801 73.608ZM181.906 80.1136C181.435 80.1136 181.018 79.9941 180.656 79.755C180.296 79.5159 180.014 79.1856 179.811 78.7642C179.607 78.3404 179.505 77.8516 179.505 77.2976C179.505 76.7389 179.607 76.2476 179.811 75.8239C180.014 75.3977 180.296 75.0663 180.656 74.8295C181.018 74.5904 181.435 74.4709 181.906 74.4709C182.377 74.4709 182.792 74.5904 183.152 74.8295C183.512 75.0687 183.794 75.4001 183.997 75.8239C184.203 76.2476 184.306 76.7389 184.306 77.2976C184.306 77.8516 184.204 78.3404 184.001 78.7642C183.797 79.1856 183.514 79.5159 183.152 79.755C182.792 79.9941 182.377 80.1136 181.906 80.1136ZM181.906 79.5348C182.285 79.5348 182.605 79.433 182.868 79.2294C183.131 79.0258 183.33 78.7547 183.465 78.4162C183.602 78.0777 183.671 77.7048 183.671 77.2976C183.671 76.8904 183.602 76.5163 183.465 76.1754C183.33 75.8345 183.131 75.5611 182.868 75.3551C182.605 75.1491 182.285 75.0462 181.906 75.0462C181.529 75.0462 181.209 75.1491 180.943 75.3551C180.681 75.5611 180.481 75.8345 180.343 76.1754C180.208 76.5163 180.141 76.8904 180.141 77.2976C180.141 77.7048 180.208 78.0777 180.343 78.4162C180.481 78.7547 180.681 79.0258 180.943 79.2294C181.206 79.433 181.527 79.5348 181.906 79.5348ZM186.326 76.5909V80H185.694V74.5455H186.308V75.4013H186.365C186.493 75.1219 186.692 74.8982 186.962 74.7301C187.234 74.5597 187.57 74.4744 187.97 74.4744C188.337 74.4744 188.659 74.5514 188.936 74.7053C189.215 74.8568 189.432 75.0805 189.586 75.3764C189.742 75.6723 189.82 76.0357 189.82 76.4666V80H189.188V76.5057C189.188 76.0582 189.063 75.7043 188.812 75.4439C188.563 75.1835 188.229 75.0533 187.81 75.0533C187.524 75.0533 187.269 75.1148 187.047 75.2379C186.824 75.361 186.648 75.5386 186.518 75.7706C186.39 76.0002 186.326 76.2737 186.326 76.5909Z" fill="#72C4FF"/>
</svg>
